<?xml version="1.0" encoding="utf-8"?>
<!-- Generator: Adobe Illustrator 28.1.0, SVG Export Plug-In . SVG Version: 6.00 Build 0)  -->
<svg version="1.1" id="圖層_1" xmlns="http://www.w3.org/2000/svg" xmlns:xlink="http://www.w3.org/1999/xlink" x="0px" y="0px"
	 viewBox="0 0 262.6 32" style="enable-background:new 0 0 262.6 32;" xml:space="preserve">
<style type="text/css">
	.st0{fill:#1A1A1A;}
	.st1{fill:#6900D3;}
</style>
<g>
	<path class="st0" d="M30.1,15.5c0-1.2,0.2-2.3,0.7-3.4c0.5-1.1,1.2-2,2.1-2.8c0.9-0.8,2-1.5,3.3-2c1.3-0.5,2.8-0.7,4.5-0.7
		c1.6,0,3.1,0.2,4.5,0.7c1.3,0.5,2.5,1.2,3.4,2c0.9,0.9,1.6,1.9,2.1,3c0.5,1.2,0.7,2.4,0.7,3.7c0,0.2,0,0.3,0,0.5c0,0.2,0,0.4,0,0.5
		H34.9c0.2,0.5,0.5,1,0.9,1.4c0.4,0.4,0.9,0.8,1.6,1.1c0.6,0.3,1.3,0.6,2.2,0.7c0.8,0.2,1.7,0.2,2.7,0.2c1,0,2-0.1,3-0.3
		c1-0.2,1.9-0.5,2.8-0.8l1.5,3.3c-0.6,0.3-1.1,0.5-1.7,0.7c-0.6,0.2-1.2,0.4-1.8,0.5c-0.6,0.1-1.3,0.2-2,0.3
		c-0.7,0.1-1.4,0.1-2.2,0.1c-1.9,0-3.6-0.2-5.1-0.7c-1.5-0.5-2.7-1.1-3.7-1.9s-1.7-1.8-2.2-2.9C30.3,18,30.1,16.8,30.1,15.5z
		 M46.7,13.9c-0.2-0.5-0.4-0.9-0.7-1.3c-0.3-0.4-0.7-0.8-1.2-1.1c-0.5-0.3-1.1-0.6-1.7-0.7c-0.6-0.2-1.4-0.3-2.1-0.3
		c-0.8,0-1.6,0.1-2.2,0.3c-0.7,0.2-1.3,0.4-1.8,0.7c-0.5,0.3-0.9,0.7-1.3,1.1c-0.3,0.4-0.6,0.8-0.7,1.3H46.7z M56.1,18.9
		c1.2,0.7,2.5,1.2,3.9,1.6c1.4,0.3,2.8,0.5,4.3,0.5c1,0,1.8-0.1,2.5-0.2c0.7-0.1,1.2-0.3,1.6-0.5c0.4-0.2,0.7-0.5,0.8-0.7
		c0.2-0.3,0.2-0.6,0.2-0.8c0-0.4-0.2-0.8-0.5-1.1c-0.4-0.3-0.9-0.4-1.8-0.4c-0.4,0-0.8,0-1.2,0.1c-0.4,0-0.9,0.1-1.4,0.2
		c-0.5,0-1,0.1-1.5,0.1c-0.5,0-1,0.1-1.6,0.1c-1.2,0-2.2-0.1-3-0.4c-0.8-0.3-1.5-0.6-2-1c-0.5-0.4-0.9-1-1.1-1.6
		c-0.2-0.6-0.4-1.3-0.4-1.9c0-0.9,0.2-1.7,0.6-2.4c0.4-0.7,1-1.4,1.8-1.9c0.8-0.5,1.7-1,2.8-1.3c1.1-0.3,2.3-0.5,3.6-0.5
		c0.7,0,1.4,0,2.2,0.1c0.8,0.1,1.5,0.2,2.2,0.3c0.7,0.1,1.4,0.3,2.1,0.5C70.9,7.8,71.5,8,72,8.2l-1.4,3.4c-1.1-0.4-2.2-0.7-3.3-1
		c-1.1-0.2-2.2-0.4-3.4-0.4c-0.8,0-1.5,0.1-2.1,0.2c-0.6,0.1-1,0.3-1.4,0.5c-0.4,0.2-0.6,0.4-0.8,0.7c-0.2,0.3-0.2,0.5-0.2,0.8
		c0,0.2,0,0.4,0.1,0.6c0.1,0.2,0.2,0.3,0.4,0.4c0.2,0.1,0.4,0.2,0.7,0.3c0.3,0.1,0.7,0.1,1.1,0.1c0.4,0,0.8,0,1.3-0.1
		c0.5,0,0.9-0.1,1.4-0.1c0.5-0.1,1-0.1,1.5-0.2c0.5,0,1.1-0.1,1.6-0.1c1,0,1.9,0.1,2.7,0.4c0.8,0.2,1.4,0.6,1.9,1
		c0.5,0.4,0.9,1,1.1,1.6c0.3,0.6,0.4,1.2,0.4,1.9c0,0.9-0.2,1.8-0.6,2.5c-0.4,0.8-1,1.5-1.9,2c-0.8,0.6-1.9,1-3.1,1.3
		c-1.2,0.3-2.7,0.5-4.3,0.5c-1,0-2-0.1-2.9-0.2c-0.9-0.1-1.8-0.3-2.7-0.5c-0.8-0.2-1.6-0.5-2.4-0.7c-0.7-0.3-1.4-0.6-2-0.9
		L56.1,18.9z M79.6,4.6c-0.4,0-0.8-0.1-1.2-0.2c-0.3-0.1-0.6-0.3-0.9-0.5c-0.2-0.2-0.4-0.5-0.6-0.7c-0.1-0.3-0.2-0.6-0.2-0.9
		c0-0.3,0.1-0.6,0.2-0.9c0.1-0.3,0.3-0.5,0.6-0.7c0.2-0.2,0.5-0.4,0.9-0.5C78.8,0.1,79.2,0,79.6,0c0.4,0,0.8,0.1,1.2,0.2
		c0.4,0.1,0.6,0.3,0.9,0.5c0.2,0.2,0.4,0.4,0.6,0.7c0.1,0.3,0.2,0.6,0.2,0.9c0,0.3-0.1,0.6-0.2,0.9c-0.1,0.3-0.3,0.5-0.6,0.7
		c-0.2,0.2-0.5,0.4-0.9,0.5C80.4,4.5,80.1,4.6,79.6,4.6z M77.5,7h4.3v17.3h-4.3V7z M89.5,27.2c0.5,0.2,1.1,0.4,1.7,0.5
		c0.6,0.1,1.1,0.2,1.6,0.3c0.5,0.1,1,0.1,1.5,0.2c0.5,0,0.9,0.1,1.3,0.1c1.2,0,2.2-0.1,3-0.4c0.9-0.3,1.6-0.6,2.1-1.1
		c0.6-0.5,1-1,1.3-1.6c0.3-0.6,0.4-1.3,0.4-2v-0.7c-0.4,0.3-0.8,0.5-1.3,0.7c-0.5,0.2-1,0.4-1.6,0.6c-0.6,0.2-1.2,0.3-1.9,0.4
		c-0.7,0.1-1.4,0.2-2.1,0.2c-1.4,0-2.7-0.2-3.9-0.6c-1.2-0.4-2.2-1-3.1-1.8c-0.9-0.8-1.6-1.7-2.1-2.8c-0.5-1.1-0.7-2.3-0.7-3.6
		c0-1.3,0.3-2.5,0.8-3.6c0.5-1.1,1.2-2,2.1-2.8c0.9-0.8,2-1.4,3.3-1.8c1.2-0.4,2.6-0.6,4.1-0.6c0.6,0,1.2,0,1.9,0.1
		C98.4,6.8,99,7,99.6,7.1c0.6,0.1,1.1,0.3,1.6,0.5c0.5,0.2,0.9,0.4,1.3,0.6V7h4.3v15.3c0,1.6-0.2,3-0.7,4.2c-0.5,1.2-1.2,2.2-2.1,3
		c-0.9,0.8-2.1,1.5-3.4,1.9c-1.4,0.4-2.9,0.6-4.7,0.6c-0.6,0-1.3,0-2-0.1c-0.7,0-1.4-0.1-2.1-0.2c-0.7-0.1-1.4-0.2-2-0.4
		c-0.7-0.1-1.3-0.3-1.9-0.5L89.5,27.2z M90.3,15.5c0,0.7,0.1,1.3,0.4,2c0.3,0.6,0.7,1.1,1.2,1.6c0.5,0.4,1.1,0.8,1.9,1.1
		c0.7,0.3,1.6,0.4,2.5,0.4c0.6,0,1.2-0.1,1.8-0.2c0.6-0.1,1.2-0.3,1.7-0.5c0.5-0.2,1.1-0.5,1.5-0.7c0.5-0.3,0.9-0.6,1.2-1v-5.7
		c-0.4-0.4-0.9-0.6-1.4-0.9c-0.5-0.2-1-0.4-1.5-0.6c-0.5-0.2-1-0.3-1.5-0.3c-0.5-0.1-1-0.1-1.5-0.1c-1,0-1.9,0.1-2.7,0.4
		c-0.8,0.3-1.4,0.6-2,1.1c-0.5,0.4-0.9,1-1.2,1.6C90.4,14.1,90.3,14.8,90.3,15.5z M111.2,7h4.3v1.5c1.2-0.7,2.2-1.1,3.3-1.4
		c1.1-0.3,2.1-0.4,3.1-0.4c1.3,0,2.5,0.2,3.7,0.6c1.1,0.4,2.1,1,2.9,1.7c0.8,0.8,1.5,1.7,1.9,2.9c0.5,1.1,0.7,2.4,0.7,3.9v8.5h-4.3
		v-7.8c0-0.9-0.1-1.8-0.4-2.5c-0.3-0.8-0.6-1.4-1.2-1.9c-0.5-0.5-1.1-0.9-1.8-1.2c-0.7-0.3-1.5-0.4-2.4-0.4c-0.5,0-1,0-1.4,0.1
		c-0.5,0.1-1,0.2-1.4,0.4c-0.5,0.2-0.9,0.4-1.4,0.7c-0.4,0.3-0.8,0.6-1.2,0.9v11.6h-4.3V7z M135,12.7c0-1.6,0.3-3.1,0.9-4.6
		c0.6-1.4,1.5-2.6,2.7-3.7c1.2-1,2.6-1.9,4.3-2.5c1.7-0.6,3.6-0.9,5.7-0.9c1.9,0,3.6,0.2,5.1,0.6c1.6,0.4,3,0.9,4.3,1.7l-2.1,3.5
		c-0.4-0.3-0.9-0.5-1.4-0.7c-0.5-0.2-1.1-0.4-1.7-0.5c-0.6-0.1-1.2-0.3-1.8-0.3c-0.6-0.1-1.2-0.1-1.9-0.1c-1.5,0-2.8,0.2-4,0.6
		c-1.2,0.4-2.1,0.9-2.9,1.5c-0.8,0.7-1.4,1.4-1.8,2.4c-0.4,0.9-0.6,1.9-0.6,3c0,1.1,0.2,2.2,0.6,3.1c0.4,0.9,1,1.8,1.9,2.5
		c0.8,0.7,1.8,1.2,3,1.6c1.2,0.4,2.5,0.6,4,0.6c0.7,0,1.3,0,2-0.1c0.7-0.1,1.3-0.2,1.9-0.4c0.6-0.2,1.2-0.4,1.8-0.6
		c0.6-0.2,1.1-0.5,1.6-0.8l2.1,3.5c-1.2,0.8-2.7,1.4-4.3,1.9c-1.6,0.4-3.4,0.7-5.2,0.7c-2.4,0-4.4-0.3-6.2-0.9
		c-1.8-0.6-3.3-1.5-4.5-2.5c-1.2-1.1-2.1-2.3-2.7-3.8C135.3,15.9,135,14.3,135,12.7z M161.8,15.6c0-1.2,0.2-2.4,0.7-3.5
		c0.5-1.1,1.2-2,2.2-2.8c0.9-0.8,2.1-1.4,3.4-1.9c1.3-0.5,2.8-0.7,4.5-0.7c1.6,0,3.1,0.2,4.5,0.7c1.3,0.5,2.5,1.1,3.4,1.9
		c0.9,0.8,1.7,1.8,2.2,2.8c0.5,1.1,0.8,2.2,0.8,3.5c0,1.2-0.3,2.4-0.8,3.5c-0.5,1.1-1.2,2-2.2,2.8c-0.9,0.8-2.1,1.4-3.4,1.9
		c-1.3,0.5-2.8,0.7-4.5,0.7c-1.7,0-3.1-0.2-4.5-0.7c-1.3-0.5-2.4-1.1-3.4-1.9c-0.9-0.8-1.6-1.8-2.2-2.8
		C162,18,161.8,16.8,161.8,15.6z M166.3,15.6c0,0.7,0.1,1.4,0.4,2c0.3,0.6,0.7,1.2,1.2,1.6c0.5,0.5,1.2,0.8,1.9,1.1
		c0.8,0.3,1.6,0.4,2.6,0.4c1,0,1.8-0.1,2.6-0.4c0.8-0.3,1.4-0.7,1.9-1.1c0.5-0.5,0.9-1,1.2-1.6c0.3-0.6,0.4-1.3,0.4-2
		c0-0.7-0.1-1.4-0.4-2c-0.3-0.6-0.7-1.2-1.2-1.6c-0.5-0.5-1.2-0.9-1.9-1.1c-0.8-0.3-1.6-0.4-2.6-0.4c-1,0-1.9,0.1-2.6,0.4
		c-0.8,0.3-1.4,0.6-1.9,1.1c-0.5,0.5-0.9,1-1.2,1.6C166.5,14.2,166.3,14.9,166.3,15.6z M187.1,7h4.3v2.5c1-0.7,2-1.3,3-1.8
		c1.1-0.5,2.1-0.9,3.2-1.2l1.3,4c-1.7,0.2-3.1,0.5-4.4,1.1c-1.3,0.6-2.3,1.4-3.1,2.4v10.3h-4.3V7z M201.6,7h4.3v1.5
		c1.2-0.7,2.2-1.1,3.3-1.4c1.1-0.3,2.1-0.4,3.1-0.4c1.3,0,2.5,0.2,3.7,0.6c1.1,0.4,2.1,1,2.9,1.7c0.8,0.8,1.5,1.7,1.9,2.9
		c0.5,1.1,0.7,2.4,0.7,3.9v8.5h-4.3v-7.8c0-0.9-0.1-1.8-0.4-2.5c-0.3-0.8-0.6-1.4-1.2-1.9c-0.5-0.5-1.1-0.9-1.8-1.2
		c-0.7-0.3-1.5-0.4-2.4-0.4c-0.5,0-1,0-1.4,0.1c-0.5,0.1-1,0.2-1.4,0.4c-0.5,0.2-0.9,0.4-1.4,0.7c-0.4,0.3-0.8,0.6-1.2,0.9v11.6
		h-4.3V7z M225.4,15.5c0-1.2,0.2-2.3,0.7-3.4c0.5-1.1,1.2-2,2.1-2.8c0.9-0.8,2-1.5,3.3-2c1.3-0.5,2.8-0.7,4.5-0.7
		c1.6,0,3.1,0.2,4.5,0.7c1.3,0.5,2.5,1.2,3.4,2c0.9,0.9,1.6,1.9,2.1,3c0.5,1.2,0.7,2.4,0.7,3.7c0,0.2,0,0.3,0,0.5c0,0.2,0,0.4,0,0.5
		h-16.3c0.2,0.5,0.5,1,0.9,1.4c0.4,0.4,0.9,0.8,1.6,1.1c0.6,0.3,1.3,0.6,2.2,0.7c0.8,0.2,1.7,0.2,2.7,0.2c1,0,2-0.1,3-0.3
		c1-0.2,1.9-0.5,2.8-0.8l1.5,3.3c-0.6,0.3-1.1,0.5-1.7,0.7c-0.6,0.2-1.2,0.4-1.8,0.5c-0.6,0.1-1.3,0.2-2,0.3
		c-0.7,0.1-1.4,0.1-2.2,0.1c-1.9,0-3.6-0.2-5.1-0.7c-1.5-0.5-2.7-1.1-3.7-1.9c-1-0.8-1.7-1.8-2.2-2.9
		C225.7,18,225.4,16.8,225.4,15.5z M242,13.9c-0.2-0.5-0.4-0.9-0.7-1.3c-0.3-0.4-0.7-0.8-1.2-1.1c-0.5-0.3-1.1-0.6-1.7-0.7
		c-0.6-0.2-1.4-0.3-2.1-0.3c-0.8,0-1.6,0.1-2.2,0.3c-0.7,0.2-1.3,0.4-1.8,0.7c-0.5,0.3-0.9,0.7-1.3,1.1c-0.3,0.4-0.6,0.8-0.7,1.3
		H242z M250.7,7h4.3v2.5c1-0.7,2-1.3,3-1.8c1.1-0.5,2.1-0.9,3.2-1.2l1.3,4c-1.7,0.2-3.1,0.5-4.4,1.1c-1.3,0.6-2.3,1.4-3.1,2.4v10.3
		h-4.3V7z M26.5,8c-0.6-1.4-1.5-2.6-2.7-3.6c-1.2-1-2.7-1.7-4.5-2.3c-1.8-0.5-3.9-0.8-6.4-0.8H4.6V5l4.6,4.6V5.4h4.9
		c1.4,0,2.6,0.2,3.6,0.5c1,0.3,1.9,0.8,2.6,1.5C21,8,21.6,8.8,21.9,9.7c0.4,0.9,0.5,1.9,0.5,3c0,1.1-0.2,2.2-0.5,3.1
		c-0.4,0.9-0.9,1.7-1.6,2.4c-0.7,0.7-1.6,1.2-2.6,1.5c-1,0.4-2.3,0.5-3.6,0.5H9.2v-4.3l-4.6,4.6v3.7l8.4,0c2.5,0,4.6-0.3,6.4-0.9
		c1.8-0.6,3.3-1.4,4.5-2.4c1.2-1,2.1-2.3,2.6-3.7c0.6-1.4,0.9-3,0.9-4.6C27.3,10.9,27,9.4,26.5,8z"/>
	<g>
		<g>
			<rect x="1.3" y="9.6" transform="matrix(0.7071 -0.7071 0.7071 0.7071 -7.7215 6.9733)" class="st1" width="6.4" height="6.4"/>
		</g>
	</g>
</g>
</svg>
