<svg width="258" height="32" viewBox="0 0 258 32" fill="none" xmlns="http://www.w3.org/2000/svg">
<path d="M0 1.34737H8.3901C10.8403 1.34737 12.9683 1.61098 14.7743 2.13821C16.5801 2.66544 18.0737 3.42212 19.2548 4.40824C20.4458 5.38459 21.3292 6.57574 21.9052 7.98168C22.4908 9.37788 22.7837 10.9498 22.7837 12.6975C22.7837 14.3573 22.4957 15.895 21.9198 17.3107C21.3439 18.7167 20.4653 19.9371 19.2841 20.972C18.103 21.9972 16.6095 22.8027 14.8035 23.3885C12.9977 23.9646 10.8696 24.2526 8.41942 24.2526L0 24.238V1.34737ZM9.53226 20.2251C10.9184 20.2251 12.1337 20.0494 13.1783 19.6979C14.2227 19.3366 15.0915 18.829 15.7846 18.1748C16.4874 17.5207 17.0145 16.7298 17.366 15.8023C17.7174 14.8747 17.8931 13.8398 17.8931 12.6975C17.8931 11.5747 17.7174 10.5641 17.366 9.66589C17.0145 8.75791 16.4874 7.99142 15.7846 7.36658C15.0915 6.73196 14.2227 6.24377 13.1783 5.90206C12.1337 5.56033 10.9184 5.38947 9.53226 5.38947H4.64166V20.2251H9.53226ZM25.5085 15.5386C25.5085 14.367 25.7476 13.2491 26.2259 12.1849C26.7042 11.1109 27.3925 10.1639 28.2905 9.34368C29.1886 8.52359 30.2868 7.86943 31.5851 7.38121C32.8932 6.89305 34.3769 6.64896 36.0364 6.64896C37.6861 6.64896 39.1699 6.89793 40.4878 7.3959C41.8153 7.88405 42.9379 8.5577 43.8555 9.41694C44.7828 10.2761 45.4905 11.2867 45.9787 12.4485C46.4765 13.6103 46.7254 14.8552 46.7254 16.183C46.7254 16.3491 46.7206 16.5297 46.7107 16.725C46.7107 16.9105 46.701 17.0813 46.6815 17.2375H30.3405C30.526 17.755 30.8237 18.2285 31.2337 18.6581C31.6534 19.0877 32.1757 19.4587 32.8005 19.7712C33.4252 20.0836 34.1475 20.3277 34.9675 20.5034C35.7875 20.6694 36.6954 20.7524 37.691 20.7524C38.6867 20.7524 39.6775 20.6498 40.6634 20.4448C41.6493 20.23 42.5914 19.9616 43.4895 19.6394L44.9537 22.9491C44.3875 23.2128 43.8116 23.4471 43.2259 23.6522C42.65 23.8474 42.0447 24.0134 41.4102 24.1501C40.7855 24.277 40.1266 24.3747 39.4335 24.443C38.7502 24.5114 38.0278 24.5455 37.2664 24.5455C35.3238 24.5455 33.6204 24.3112 32.1562 23.8426C30.6919 23.3739 29.4668 22.7344 28.4809 21.924C27.495 21.1136 26.7531 20.1617 26.2553 19.0682C25.7574 17.9746 25.5085 16.7981 25.5085 15.5386ZM42.1277 13.8544C41.9715 13.376 41.7275 12.9318 41.3956 12.5217C41.0734 12.1019 40.6683 11.7406 40.1802 11.438C39.6922 11.1255 39.126 10.8815 38.4817 10.7057C37.8374 10.53 37.1297 10.4421 36.3586 10.4421C35.5386 10.4421 34.7918 10.5349 34.1183 10.7204C33.4447 10.9059 32.8541 11.1548 32.3465 11.4673C31.8389 11.7797 31.4143 12.141 31.0726 12.551C30.7408 12.9611 30.4967 13.3956 30.3405 13.8544H42.1277ZM51.5148 18.9364C52.6862 19.6394 53.9748 20.1568 55.3804 20.4888C56.7861 20.8207 58.2259 20.9867 59.7 20.9867C60.6956 20.9867 61.5254 20.9184 62.1892 20.7817C62.8529 20.645 63.3849 20.4693 63.7852 20.2544C64.1855 20.0396 64.4685 19.7955 64.6345 19.5222C64.8004 19.2488 64.8834 18.9706 64.8834 18.6874C64.8834 18.2773 64.7028 17.9258 64.3416 17.6329C63.9902 17.34 63.4045 17.1936 62.5845 17.1936C62.2038 17.1936 61.7939 17.218 61.3545 17.2668C60.9153 17.3156 60.4516 17.3693 59.9635 17.4279C59.4852 17.4767 58.9825 17.5256 58.4553 17.5744C57.938 17.6232 57.4108 17.6476 56.874 17.6476C55.7026 17.6476 54.702 17.5207 53.8722 17.2668C53.0523 17.013 52.3836 16.6663 51.8662 16.227C51.3489 15.7877 50.9731 15.2702 50.7388 14.6746C50.5045 14.0692 50.3873 13.42 50.3873 12.7267C50.3873 11.8481 50.5923 11.0376 51.0023 10.2956C51.4123 9.55364 51.998 8.9141 52.7594 8.37714C53.5208 7.83036 54.4385 7.40565 55.5122 7.10294C56.5958 6.8003 57.8013 6.64896 59.1289 6.64896C59.8219 6.64896 60.5443 6.6929 61.296 6.78077C62.0574 6.85888 62.8041 6.96628 63.5363 7.10294C64.2684 7.23964 64.9712 7.40078 65.6448 7.58629C66.3183 7.76197 66.9138 7.95236 67.4312 8.15744L66.0694 11.5259C64.9663 11.1158 63.8633 10.7936 62.7602 10.5592C61.6669 10.3152 60.5395 10.1931 59.3778 10.1931C58.5676 10.1931 57.8794 10.2566 57.3132 10.3835C56.7568 10.5007 56.3029 10.6618 55.9515 10.8668C55.6 11.0621 55.3414 11.2915 55.1754 11.5551C55.0192 11.809 54.9411 12.0775 54.9411 12.3607C54.9411 12.5657 54.9802 12.7512 55.0583 12.9171C55.1462 13.0831 55.2828 13.2296 55.4683 13.3565C55.6635 13.4736 55.9124 13.5664 56.215 13.6348C56.5274 13.6934 56.9081 13.7227 57.3572 13.7227C57.7672 13.7227 58.2015 13.6982 58.6604 13.6494C59.1191 13.6006 59.5975 13.5518 60.0953 13.503C60.5931 13.4444 61.1056 13.3907 61.6327 13.3419C62.1697 13.293 62.7163 13.2686 63.2727 13.2686C64.3074 13.2686 65.2104 13.3907 65.9816 13.6348C66.7625 13.8789 67.4067 14.2206 67.9144 14.66C68.422 15.0993 68.8027 15.6168 69.0565 16.2124C69.3103 16.8079 69.4372 17.4572 69.4372 18.1601C69.4372 19.0682 69.2273 19.9127 68.8076 20.6938C68.3878 21.4749 67.7631 22.1535 66.9333 22.7295C66.1036 23.2958 65.0688 23.74 63.8291 24.0622C62.5992 24.3844 61.1739 24.5455 59.5535 24.5455C58.5578 24.5455 57.5963 24.482 56.6689 24.3551C55.7416 24.238 54.8582 24.0769 54.0187 23.8718C53.1792 23.6571 52.3885 23.408 51.6466 23.1249C50.9144 22.8418 50.2458 22.5391 49.6406 22.2169L51.5148 18.9364ZM75.061 4.59862C74.6317 4.59862 74.2412 4.54004 73.8898 4.42288C73.5482 4.29596 73.2553 4.12997 73.0112 3.92494C72.7672 3.71014 72.5769 3.46606 72.4402 3.19267C72.3133 2.90953 72.2498 2.61174 72.2498 2.29931C72.2498 1.97711 72.3133 1.67932 72.4402 1.40595C72.5769 1.12281 72.7672 0.878721 73.0112 0.673685C73.2553 0.468649 73.5482 0.307553 73.8898 0.190389C74.2412 0.0634634 74.6317 0 75.061 0C75.5003 0 75.8909 0.0634634 76.2328 0.190389C76.5844 0.307553 76.882 0.468649 77.1256 0.673685C77.37 0.878721 77.5552 1.12281 77.6819 1.40595C77.8191 1.67932 77.8873 1.97711 77.8873 2.29931C77.8873 2.61174 77.8191 2.90953 77.6819 3.19267C77.5552 3.46606 77.37 3.71014 77.1256 3.92494C76.882 4.12997 76.5844 4.29596 76.2328 4.42288C75.8909 4.54004 75.5003 4.59862 75.061 4.59862ZM72.8941 6.95651H77.2283V24.238H72.8941V6.95651ZM84.9315 27.167C85.478 27.3623 86.0343 27.5234 86.601 27.6503C87.167 27.787 87.7136 27.8944 88.2406 27.9725C88.7774 28.0604 89.2902 28.119 89.7782 28.1482C90.2663 28.1873 90.7004 28.2069 91.0812 28.2069C92.2335 28.2069 93.2336 28.0653 94.083 27.7822C94.9421 27.5088 95.6543 27.1377 96.2211 26.6691C96.7969 26.2004 97.2265 25.6537 97.5091 25.0288C97.7925 24.4137 97.9342 23.7596 97.9342 23.0663V22.3194C97.5631 22.5732 97.129 22.8174 96.6312 23.0517C96.1326 23.286 95.5861 23.491 94.9909 23.6668C94.3956 23.8426 93.7606 23.9841 93.0874 24.0915C92.4239 24.1989 91.7357 24.2526 91.0227 24.2526C89.6073 24.2526 88.2991 24.0427 87.0988 23.6229C85.8978 23.1933 84.858 22.5977 83.9801 21.8362C83.1015 21.0648 82.4132 20.1422 81.9154 19.0682C81.4274 17.9942 81.183 16.803 81.183 15.4947C81.183 14.1571 81.4416 12.9464 81.9589 11.8627C82.4762 10.7692 83.1892 9.83678 84.0971 9.06542C85.0147 8.29413 86.098 7.69854 87.3477 7.2787C88.5967 6.85888 89.9537 6.64896 91.4178 6.64896C92.0431 6.64896 92.6631 6.68802 93.2778 6.76613C93.8926 6.84424 94.4781 6.95163 95.0351 7.08832C95.6011 7.22501 96.1282 7.39103 96.6162 7.58629C97.114 7.7718 97.5533 7.9768 97.9342 8.20138V6.95651H102.268V22.2609C102.268 23.8328 102.029 25.2241 101.551 26.4348C101.072 27.6455 100.37 28.6608 99.4425 29.481C98.5249 30.3109 97.3824 30.9358 96.0157 31.3556C94.649 31.7852 93.0821 32 91.3159 32C90.6809 32 90.0219 31.9707 89.3389 31.9121C88.6559 31.8633 87.9677 31.7852 87.2743 31.6778C86.5913 31.5802 85.9128 31.4581 85.2388 31.3116C84.5754 31.175 83.9359 31.0139 83.3211 30.8284L84.9315 27.167ZM85.7366 15.4507C85.7366 16.144 85.8738 16.7981 86.1467 17.4132C86.4301 18.0186 86.8304 18.5507 87.3477 19.0096C87.865 19.4587 88.4895 19.8151 89.222 20.0787C89.9537 20.3326 90.7791 20.4594 91.696 20.4594C92.292 20.4594 92.8827 20.4058 93.4682 20.2984C94.0635 20.1812 94.6295 20.0201 95.1663 19.8151C95.7136 19.61 96.2211 19.3611 96.6897 19.0682C97.168 18.7752 97.5826 18.4482 97.9342 18.087V12.3899C97.4948 12.0385 97.0308 11.7406 96.5427 11.4965C96.0547 11.2525 95.5569 11.0523 95.0493 10.8961C94.5418 10.7399 94.029 10.6276 93.5117 10.5592C92.9944 10.4811 92.4921 10.4421 92.0041 10.4421C91.0085 10.4421 90.1201 10.5739 89.3389 10.8375C88.5675 11.1012 87.9137 11.4624 87.377 11.9213C86.8499 12.3704 86.4443 12.8976 86.1617 13.503C85.8783 14.1083 85.7366 14.7576 85.7366 15.4507ZM106.633 6.95651H110.967V8.42101C112.119 7.76692 113.217 7.30802 114.262 7.04438C115.316 6.78077 116.346 6.64896 117.351 6.64896C118.669 6.64896 119.889 6.84424 121.012 7.23476C122.134 7.61553 123.106 8.18676 123.925 8.94829C124.745 9.70983 125.385 10.6618 125.844 11.8041C126.312 12.9367 126.547 14.2499 126.547 15.7437V24.238H122.227V16.4467C122.227 15.4996 122.091 14.6551 121.817 13.9131C121.553 13.1613 121.168 12.5315 120.66 12.0238C120.163 11.5063 119.552 11.1158 118.83 10.8521C118.117 10.5788 117.317 10.4421 116.428 10.4421C115.96 10.4421 115.477 10.4909 114.979 10.5886C114.491 10.6862 114.008 10.8278 113.529 11.0133C113.061 11.189 112.607 11.4135 112.168 11.6869C111.729 11.9506 111.328 12.2532 110.967 12.595V24.238H106.633V6.95651ZM130.457 12.6535C130.457 11.023 130.765 9.50482 131.38 8.09888C131.995 6.68314 132.883 5.45782 134.045 4.42288C135.216 3.37818 136.642 2.55805 138.32 1.96247C140.009 1.3669 141.918 1.0691 144.046 1.0691C145.91 1.0691 147.619 1.2595 149.171 1.64027C150.732 2.01129 152.182 2.58245 153.52 3.35377L151.381 6.86865C150.981 6.60503 150.518 6.37071 149.991 6.16567C149.473 5.96064 148.917 5.78978 148.321 5.65308C147.736 5.50663 147.125 5.39435 146.491 5.31624C145.867 5.23814 145.247 5.19908 144.631 5.19908C143.148 5.19908 141.825 5.38459 140.663 5.7556C139.502 6.11685 138.52 6.62944 137.72 7.29332C136.93 7.94748 136.325 8.73347 135.905 9.65127C135.495 10.5592 135.289 11.56 135.289 12.6535C135.289 13.7861 135.504 14.8259 135.934 15.773C136.364 16.7201 136.984 17.5402 137.793 18.2334C138.613 18.9168 139.609 19.4538 140.781 19.8444C141.961 20.2251 143.294 20.4155 144.778 20.4155C145.451 20.4155 146.12 20.3667 146.784 20.2691C147.448 20.1714 148.087 20.0396 148.702 19.8737C149.326 19.6979 149.927 19.4929 150.503 19.2586C151.079 19.0145 151.616 18.7509 152.114 18.4677L154.251 21.9826C153.002 22.7832 151.558 23.4129 149.917 23.8718C148.278 24.321 146.535 24.5455 144.69 24.5455C142.338 24.5455 140.273 24.2428 138.496 23.6375C136.72 23.0224 135.236 22.1827 134.045 21.1185C132.854 20.0446 131.956 18.7851 131.351 17.34C130.755 15.8853 130.457 14.3231 130.457 12.6535ZM157.225 15.5973C157.225 14.3573 157.474 13.1954 157.972 12.1116C158.48 11.0279 159.197 10.0809 160.124 9.2705C161.061 8.46007 162.189 7.82061 163.507 7.35196C164.835 6.88329 166.323 6.64896 167.973 6.64896C169.622 6.64896 171.107 6.88329 172.424 7.35196C173.752 7.82061 174.879 8.46007 175.806 9.2705C176.744 10.0809 177.461 11.0279 177.959 12.1116C178.466 13.1954 178.721 14.3573 178.721 15.5973C178.721 16.8372 178.466 17.9991 177.959 19.0828C177.461 20.1666 176.744 21.1136 175.806 21.924C174.879 22.7344 173.752 23.3739 172.424 23.8426C171.107 24.3112 169.622 24.5455 167.973 24.5455C166.323 24.5455 164.835 24.3112 163.507 23.8426C162.189 23.3739 161.061 22.7344 160.124 21.924C159.197 21.1136 158.48 20.1666 157.972 19.0828C157.474 17.9991 157.225 16.8372 157.225 15.5973ZM161.779 15.5973C161.779 16.2904 161.916 16.9495 162.189 17.5744C162.472 18.1895 162.877 18.7362 163.404 19.2146C163.941 19.6833 164.59 20.0592 165.352 20.3423C166.123 20.6157 166.997 20.7524 167.973 20.7524C168.949 20.7524 169.818 20.6157 170.579 20.3423C171.35 20.0592 172 19.6833 172.527 19.2146C173.063 18.7362 173.469 18.1895 173.742 17.5744C174.025 16.9495 174.167 16.2904 174.167 15.5973C174.167 14.904 174.025 14.245 173.742 13.6201C173.469 12.9953 173.063 12.4485 172.527 11.9798C172 11.5014 171.35 11.1255 170.579 10.8521C169.818 10.569 168.949 10.4274 167.973 10.4274C166.997 10.4274 166.123 10.569 165.352 10.8521C164.59 11.1255 163.941 11.5014 163.404 11.9798C162.877 12.4485 162.472 12.9953 162.189 13.6201C161.916 14.245 161.779 14.904 161.779 15.5973ZM182.529 6.95651H186.863V9.44619C187.82 8.73347 188.83 8.11837 189.894 7.60091C190.958 7.08344 192.017 6.68802 193.071 6.41464L194.345 10.3835C192.676 10.5495 191.207 10.9254 189.938 11.5112C188.679 12.0873 187.654 12.9025 186.863 13.957V24.238H182.529V6.95651ZM197.012 6.95651H201.346V8.42101C202.498 7.76692 203.595 7.30802 204.64 7.04438C205.695 6.78077 206.725 6.64896 207.73 6.64896C209.048 6.64896 210.268 6.84424 211.391 7.23476C212.513 7.61553 213.485 8.18676 214.304 8.94829C215.124 9.70983 215.764 10.6618 216.222 11.8041C216.691 12.9367 216.925 14.2499 216.925 15.7437V24.238H212.606V16.4467C212.606 15.4996 212.469 14.6551 212.196 13.9131C211.932 13.1613 211.547 12.5315 211.039 12.0238C210.541 11.5063 209.931 11.1158 209.208 10.8521C208.496 10.5788 207.695 10.4421 206.807 10.4421C206.339 10.4421 205.856 10.4909 205.358 10.5886C204.87 10.6862 204.386 10.8278 203.908 11.0133C203.439 11.189 202.986 11.4135 202.547 11.6869C202.107 11.9506 201.707 12.2532 201.346 12.595V24.238H197.012V6.95651ZM220.865 15.5386C220.865 14.367 221.105 13.2491 221.583 12.1849C222.061 11.1109 222.749 10.1639 223.647 9.34368C224.546 8.52359 225.644 7.86943 226.942 7.38121C228.25 6.89305 229.733 6.64896 231.393 6.64896C233.043 6.64896 234.527 6.89793 235.844 7.3959C237.172 7.88405 238.295 8.5577 239.213 9.41694C240.14 10.2761 240.848 11.2867 241.336 12.4485C241.834 13.6103 242.082 14.8552 242.082 16.183C242.082 16.3491 242.077 16.5297 242.067 16.725C242.067 16.9105 242.058 17.0813 242.038 17.2375H225.697C225.883 17.755 226.181 18.2285 226.591 18.6581C227.011 19.0877 227.532 19.4587 228.158 19.7712C228.782 20.0836 229.504 20.3277 230.324 20.5034C231.144 20.6694 232.052 20.7524 233.048 20.7524C234.043 20.7524 235.035 20.6498 236.02 20.4448C237.006 20.23 237.948 19.9616 238.846 19.6394L240.31 22.9491C239.744 23.2128 239.168 23.4471 238.583 23.6522C238.007 23.8474 237.401 24.0134 236.767 24.1501C236.143 24.277 235.484 24.3747 234.79 24.443C234.107 24.5114 233.385 24.5455 232.624 24.5455C230.68 24.5455 228.977 24.3112 227.513 23.8426C226.049 23.3739 224.824 22.7344 223.838 21.924C222.852 21.1136 222.11 20.1617 221.612 19.0682C221.114 17.9746 220.865 16.7981 220.865 15.5386ZM237.485 13.8544C237.329 13.376 237.084 12.9318 236.752 12.5217C236.431 12.1019 236.025 11.7406 235.537 11.438C235.049 11.1255 234.483 10.8815 233.839 10.7057C233.194 10.53 232.486 10.4421 231.716 10.4421C230.896 10.4421 230.149 10.5349 229.475 10.7204C228.802 10.9059 228.211 11.1548 227.703 11.4673C227.196 11.7797 226.771 12.141 226.43 12.551C226.097 12.9611 225.854 13.3956 225.697 13.8544H237.485ZM246.183 6.95651H250.517V9.44619C251.475 8.73347 252.484 8.11837 253.548 7.60091C254.613 7.08344 255.671 6.68802 256.726 6.41464L258 10.3835C256.33 10.5495 254.862 10.9254 253.593 11.5112C252.333 12.0873 251.308 12.9025 250.517 13.957V24.238H246.183V6.95651Z" fill="#1A1A1A"/>
</svg>
